<?xml version="1.0" encoding="utf-8"?>
<!-- Generator: Adobe Illustrator 14.0.0, SVG Export Plug-In . SVG Version: 6.00 Build 43363)  -->
<!DOCTYPE svg PUBLIC "-//W3C//DTD SVG 1.1//EN" "http://www.w3.org/Graphics/SVG/1.1/DTD/svg11.dtd">
<svg version="1.1" id="Layer_1" xmlns="http://www.w3.org/2000/svg" xmlns:xlink="http://www.w3.org/1999/xlink" x="0px" y="0px"
	 width="512px" height="512px" viewBox="0 0 512 512" enable-background="new 0 0 512 512" xml:space="preserve">
<g id="Outline">
	<path d="M24,424v16h16v40c0,4.418,3.581,8,8,8h408v-16H56V56H40v32H24v16h16v32H24v16h16v32H24v16h16v32H24v16h16v32H24v16h16v32
		H24v16h16v32H24v16h16v32H24z"/>
	<path d="M40,24h16v16H40V24z"/>
	<path d="M472,472h16v16h-16V472z"/>
	<path d="M120,152v128h-16c-4.419,0-8,3.582-8,8v120c0,4.418,3.581,8,8,8h16v24h16v-24h16c4.418,0,8-3.582,8-8V288
		c0-4.418-3.582-8-8-8h-16V152H120z M144,400h-32V296h32V400z"/>
	<path d="M208,72v40h-16c-4.419,0-8,3.582-8,8v184c0,4.418,3.581,8,8,8h16v72h16v-72h16c4.418,0,8-3.582,8-8V120
		c0-4.418-3.582-8-8-8h-16V72H208z M232,296h-32V128h32V296z"/>
	<path d="M296,168v64h-16c-4.419,0-8,3.582-8,8v136c0,4.418,3.581,8,8,8h16v40h16v-40h16c4.418,0,8-3.582,8-8V240
		c0-4.418-3.582-8-8-8h-16v-64H296z M320,368h-32V248h32V368z"/>
	<path d="M384,104v40h-16c-4.419,0-8,3.582-8,8v112c0,4.418,3.581,8,8,8h16v136h16V272h16c4.418,0,8-3.582,8-8V152
		c0-4.418-3.582-8-8-8h-16v-40H384z M408,256h-32v-96h32V256z"/>
</g>
</svg>
