<svg xmlns="http://www.w3.org/2000/svg" data-name="Layer 2" viewBox="0 0 100 125" x="0px" y="0px"><title>Directed Acyclic Graph</title><path d="M52.4,9.06c.59,0,1.17.09,1.73.17"/><path d="M12,57.28a7,7,0,1,1,7-7A7,7,0,0,1,12,57.28Zm0-12a5,5,0,1,0,5,5A5,5,0,0,0,12,45.28Z"/><path d="M31,57.28a7,7,0,1,1,7-7A7,7,0,0,1,31,57.28Zm0-12a5,5,0,1,0,5,5A5,5,0,0,0,31,45.28Z"/><path d="M50,57.28a7,7,0,1,1,7-7A7,7,0,0,1,50,57.28Zm0-12a5,5,0,1,0,5,5A5,5,0,0,0,50,45.28Z"/><path d="M69,57.28a7,7,0,1,1,7-7A7,7,0,0,1,69,57.28Zm0-12a5,5,0,1,0,5,5A5,5,0,0,0,69,45.28Z"/><path d="M88,57.28a7,7,0,1,1,7-7A7,7,0,0,1,88,57.28Zm0-12a5,5,0,1,0,5,5A5,5,0,0,0,88,45.28Z"/><polygon points="24 50.28 20.98 48.54 20.98 49.78 19 49.78 19 50.78 20.98 50.78 20.98 52.03 24 50.28"/><polygon points="43 50.28 39.98 48.54 39.98 49.78 38 49.78 38 50.78 39.98 50.78 39.98 52.03 43 50.28"/><polygon points="62 50.28 58.98 48.54 58.98 49.78 57 49.78 57 50.78 58.98 50.78 58.98 52.03 62 50.28"/><polygon points="81 50.28 77.98 48.54 77.98 49.78 76 49.78 76 50.78 77.98 50.78 77.98 52.03 81 50.28"/><path d="M70,42.28l-.5-3.45-1,.76C65,35.77,57.31,29.78,43,29.78c-20,0-31.26,12-31.37,12.16l.74.68C12.48,42.5,23.45,30.78,43,30.78c13.86,0,21.35,5.73,24.74,9.43l-1,.78Z"/><path d="M89,58.28l-3.25,1.27,1,.77A37.14,37.14,0,0,1,59,72.78C39.55,72.78,31.52,58.2,31.44,58l-.88.47a28.65,28.65,0,0,0,6.62,7.65A33.46,33.46,0,0,0,59,73.78,38.14,38.14,0,0,0,87.5,61l1,.78Z"/><path d="M88,39.39a20.22,20.22,0,0,0-17.46-9.6c-13.81,0-20.89,12.13-21,12.25l.87.5c.07-.12,6.85-11.75,20.09-11.75a19.25,19.25,0,0,1,16.59,9.09l-1.1.61,3,1.8.07-3.49Z"/><path d="M70,58.28l-3.37.9.88.89c-2.72,2.29-8.25,5.72-17,5.72-13.07,0-19-7.72-19.1-7.8l-.8.6c.25.33,6.31,8.2,19.9,8.2,9.14,0,14.91-3.62,17.72-6l.87.87Z"/><text x="0" y="115" fill="#000000" font-size="5px" font-weight="bold" font-family="'Helvetica Neue', Helvetica, Arial-Unicode, Arial, Sans-serif">Created by Evangeline White</text><text x="0" y="120" fill="#000000" font-size="5px" font-weight="bold" font-family="'Helvetica Neue', Helvetica, Arial-Unicode, Arial, Sans-serif">from the Noun Project</text></svg>