<?xml version="1.0" encoding="utf-8"?>
<!-- Generator: Adobe Illustrator 24.1.3, SVG Export Plug-In . SVG Version: 6.00 Build 0)  -->
<svg version="1.1" id="Layer_1" xmlns="http://www.w3.org/2000/svg" xmlns:xlink="http://www.w3.org/1999/xlink" x="0px" y="0px"
	 viewBox="0 0 140 140" style="enable-background:new 0 0 140 140;" xml:space="preserve">
<style type="text/css">
	.st0{fill:none;stroke:#000000;stroke-width:4;stroke-miterlimit:10;}
	.st1{font-family:'Arial-Black';}
	.st2{font-size:20px;}
</style>
<circle class="st0" cx="70.96" cy="38.03" r="20"/>
<circle class="st0" cx="21.96" cy="100.03" r="20"/>
<circle class="st0" cx="117.96" cy="101.03" r="20"/>
<path class="st0" d="M21.96,101.03"/>
<path class="st0" d="M69.96,36.03"/>
<g>
	<g>
		<line class="st0" x1="91.27" y1="65.87" x2="82.96" y2="55.03"/>
		<g>
			<path d="M105.96,85.03c-3.57-11.58-6.43-27.14-5.7-38.71L89.34,63.36l-19.28,6.11C81.42,71.77,95.7,78.58,105.96,85.03z"/>
		</g>
	</g>
</g>
<g>
	<g>
		<line class="st0" x1="41.96" y1="101.03" x2="73.82" y2="101.03"/>
		<g>
			<path d="M97.96,101.03c-11.36,4.21-25.45,11.41-34.19,19.02l6.88-19.02l-6.88-19.02C72.5,89.63,86.6,96.82,97.96,101.03z"/>
		</g>
	</g>
</g>
<g>
	<g>
		<line class="st0" x1="33.96" y1="84.03" x2="43.18" y2="72.12"/>
		<g>
			<path d="M57.96,53.03c-3.62,11.56-6.56,27.11-5.89,38.68L41.24,74.62l-19.25-6.2C33.36,66.18,47.67,59.44,57.96,53.03z"/>
		</g>
	</g>
</g>
<text transform="matrix(1 0 0 1 15.332 106.531)" class="st1 st2">X</text>
<text transform="matrix(1 0 0 1 62.4116 44.9734)" class="st1 st2">M</text>
<text transform="matrix(1 0 0 1 111.6152 106.4333)" class="st1 st2">Y</text>
</svg>
