<svg height="512" viewBox="0 0 512 512" width="512" xmlns="http://www.w3.org/2000/svg"><g id="Outline"><path d="m24 424v16h16v40a8 8 0 0 0 8 8h408v-16h-400v-416h-16v32h-16v16h16v32h-16v16h16v32h-16v16h16v32h-16v16h16v32h-16v16h16v32h-16v16h16v32h-16v16h16v32z"/><path d="m40 24h16v16h-16z"/><path d="m472 472h16v16h-16z"/><path d="m400 24h16v16h-16z"/><path d="m432 24h56v16h-56z"/><path d="m400 56h88v16h-88z"/><path d="m120 152v128h-16a8 8 0 0 0 -8 8v120a8 8 0 0 0 8 8h16v24h16v-24h16a8 8 0 0 0 8-8v-120a8 8 0 0 0 -8-8h-16v-128zm24 248h-32v-104h32z"/><path d="m208 72v40h-16a8 8 0 0 0 -8 8v184a8 8 0 0 0 8 8h16v72h16v-72h16a8 8 0 0 0 8-8v-184a8 8 0 0 0 -8-8h-16v-40zm24 224h-32v-168h32z"/><path d="m296 168v64h-16a8 8 0 0 0 -8 8v136a8 8 0 0 0 8 8h16v40h16v-40h16a8 8 0 0 0 8-8v-136a8 8 0 0 0 -8-8h-16v-64zm24 200h-32v-120h32z"/><path d="m384 104v40h-16a8 8 0 0 0 -8 8v112a8 8 0 0 0 8 8h16v136h16v-136h16a8 8 0 0 0 8-8v-112a8 8 0 0 0 -8-8h-16v-40zm24 152h-32v-96h32z"/></g></svg>